<?xml version="1.0" encoding="utf-8"?>
<!-- Generator: Adobe Illustrator 16.0.0, SVG Export Plug-In . SVG Version: 6.00 Build 0)  -->
<!DOCTYPE svg PUBLIC "-//W3C//DTD SVG 1.1//EN" "http://www.w3.org/Graphics/SVG/1.1/DTD/svg11.dtd">
<svg version="1.1" id="Layer_1" xmlns="http://www.w3.org/2000/svg" xmlns:xlink="http://www.w3.org/1999/xlink" x="0px" y="0px"
	 width="300px" height="70px" viewBox="0 0 300 70" enable-background="new 0 0 300 70" xml:space="preserve">
<line fill="none" stroke="#000000" stroke-miterlimit="10" x1="24.763" y1="22.877" x2="61.243" y2="58.887"/>
<line fill="none" stroke="#000000" stroke-miterlimit="10" x1="61.855" y1="23.48" x2="26.684" y2="59.111"/>
<g>
	<path d="M23.184,50.813c-1.058-0.14-2.157-0.772-3.297-1.897l-8.995-8.879l1.115-1.13l9.025,8.908
		c0.814,0.805,1.589,1.282,2.324,1.435c0.733,0.151,1.483-0.159,2.247-0.934c0.733-0.742,1.025-1.489,0.874-2.242
		c-0.152-0.753-0.63-1.526-1.434-2.321l-9.025-8.908l1.1-1.115l8.995,8.878c1.12,1.105,1.754,2.199,1.902,3.28
		c0.149,1.082-0.345,2.198-1.48,3.348C25.358,50.427,24.242,50.953,23.184,50.813z"/>
</g>
<g>
	<path d="M34.736,15.88l1.146-1.161l13.148,8.154L40.75,9.787l1.146-1.161l12.671,11.905l-0.949,0.962l-10.09-9.478l7.513,12.089
		l-0.739,0.749l-12.14-7.372l9.593,9.952l-0.95,0.962L34.736,15.88z"/>
</g>
<g>
	<path d="M56.954,38.203l4.387-4.444l0.871,0.859l-3.241,3.284l4.657,4.597l2.698-2.733l0.855,0.845l-2.698,2.733l5.986,5.908
		l-1.146,1.161L56.954,38.203z"/>
</g>
<g>
	<path d="M77.813,24.126h8.24l3.819,20.213l4.12-20.213h7.939l0.601,34.761h-5.45l-0.644-23.131l-4.034,23.131h-4.849l-4.292-23.303
		l-0.515,23.303h-5.536L77.813,24.126z"/>
	<path d="M107.553,24.126h15.621v5.235h-7.939v8.626h6.051v5.321h-6.051v10.386h8.025v5.192h-15.707V24.126z"/>
	<path d="M126.735,24.126h5.407l7.124,16.736V24.126h6.351v34.761h-5.192l-7.124-18.024v18.024h-6.566V24.126z"/>
	<path d="M149.308,24.126h5.708l-2.318,12.917h-3.39V24.126z"/>
	<path d="M159.886,57.835c-1.444-0.986-2.61-2.567-3.497-4.741l4.764-2.104c0.457,1.145,0.993,2.032,1.609,2.661
		c0.614,0.63,1.294,0.944,2.038,0.944c1.087,0,1.631-0.43,1.631-1.288c0-0.629-0.215-1.194-0.644-1.695
		c-0.43-0.5-1.359-1.337-2.79-2.51l-1.802-1.502c-1.488-1.259-2.568-2.403-3.24-3.434c-0.673-1.03-1.009-2.26-1.009-3.69
		c0-1.316,0.351-2.489,1.052-3.52c0.7-1.03,1.638-1.837,2.811-2.424c1.173-0.586,2.432-0.88,3.776-0.88
		c2.031,0,3.727,0.551,5.086,1.652c1.358,1.101,2.324,2.682,2.896,4.742l-4.506,2.06c-0.286-0.915-0.729-1.737-1.331-2.467
		c-0.601-0.729-1.259-1.095-1.974-1.095c-0.458,0-0.822,0.129-1.095,0.387c-0.271,0.257-0.407,0.601-0.407,1.029
		c0,0.516,0.279,1.073,0.837,1.674s1.438,1.388,2.639,2.36l1.76,1.545c1.431,1.202,2.532,2.325,3.305,3.369
		c0.772,1.045,1.158,2.268,1.158,3.669c0,1.402-0.351,2.611-1.051,3.626c-0.701,1.017-1.631,1.789-2.79,2.317
		c-1.158,0.529-2.41,0.794-3.755,0.794C163.154,59.315,161.33,58.822,159.886,57.835z"/>
	<path d="M186.6,24.126h12.488v2.446h-9.227v13.089h7.682v2.403h-7.682v16.822H186.6V24.126z"/>
	<path d="M202.993,57.686c-0.916-1.059-1.373-2.375-1.373-3.948c0-1.631,0.321-2.976,0.966-4.034
		c0.644-1.059,1.637-2.002,2.982-2.832c1.344-0.83,3.361-1.846,6.051-3.048v-1.759c0-1.545-0.094-2.747-0.279-3.605
		c-0.187-0.858-0.501-1.473-0.944-1.845s-1.065-0.559-1.866-0.559c-2.317,0-3.477,1.416-3.477,4.249v0.858l-3.09-0.043
		c0.028-2.546,0.572-4.421,1.631-5.622c1.059-1.202,2.761-1.803,5.107-1.803c2.174,0,3.726,0.659,4.656,1.974
		c0.929,1.316,1.395,3.39,1.395,6.223v12.059c0,0.802,0.021,1.717,0.064,2.747s0.092,1.76,0.149,2.188h-2.789l-0.472-3.434
		c-0.372,1.088-1.009,1.996-1.91,2.726s-1.967,1.094-3.197,1.094C205.11,59.272,203.908,58.744,202.993,57.686z M209.924,55.732
		c0.701-0.586,1.266-1.28,1.695-2.081v-7.725c-1.946,1.029-3.354,1.831-4.228,2.403s-1.53,1.209-1.974,1.909
		c-0.444,0.701-0.665,1.609-0.665,2.726c0,1.23,0.264,2.146,0.794,2.746c0.528,0.601,1.208,0.901,2.038,0.901
		C208.443,56.612,209.223,56.319,209.924,55.732z"/>
	<path d="M220.309,57.385c-1.188-1.259-1.867-2.976-2.039-5.149l2.618-0.815c0.172,1.888,0.615,3.276,1.33,4.162
		c0.715,0.888,1.717,1.331,3.004,1.331c1.087,0,1.924-0.308,2.511-0.923c0.586-0.615,0.88-1.48,0.88-2.597
		c0-1.631-1.002-3.29-3.004-4.978l-3.391-2.919c-1.173-0.972-2.031-1.931-2.575-2.875c-0.543-0.944-0.814-2.061-0.814-3.348
		c0-1.744,0.536-3.111,1.608-4.098c1.073-0.987,2.511-1.48,4.313-1.48c1.83,0,3.24,0.587,4.227,1.76
		c0.987,1.173,1.538,2.761,1.652,4.763l-2.231,0.729c-0.172-3.262-1.345-4.893-3.519-4.893c-0.974,0-1.746,0.266-2.317,0.794
		c-0.573,0.53-0.858,1.267-0.858,2.21c0,0.772,0.143,1.445,0.429,2.018s0.815,1.201,1.588,1.888l3.52,3.134
		c1.344,1.201,2.366,2.324,3.068,3.368c0.7,1.045,1.051,2.325,1.051,3.841c0,1.889-0.572,3.354-1.716,4.399
		c-1.146,1.044-2.69,1.565-4.635,1.565C223.062,59.272,221.495,58.644,220.309,57.385z"/>
	<path d="M234.964,24.126h3.133v12.573c1.859-2.001,3.876-3.003,6.051-3.003c1.229,0,2.174,0.458,2.832,1.374
		c0.658,0.916,0.987,2.217,0.987,3.905v19.912h-3.176V39.661c0-1.259-0.193-2.16-0.579-2.704c-0.387-0.543-0.98-0.815-1.781-0.815
		c-0.687,0-1.409,0.215-2.167,0.644c-0.759,0.43-1.48,1.002-2.167,1.717v20.385h-3.133V24.126z"/>
	<path d="M252.943,26.4h3.133v4.249h-3.133V26.4z M252.943,34.082h3.133v24.805h-3.133V34.082z"/>
	<path d="M262.343,56.977c-0.974-1.529-1.46-3.883-1.46-7.059v-6.867c0-3.176,0.486-5.528,1.46-7.059
		c0.972-1.53,2.688-2.296,5.149-2.296c2.489,0,4.22,0.766,5.192,2.296c0.973,1.531,1.459,3.883,1.459,7.059v6.867
		c0,3.176-0.486,5.529-1.459,7.059c-0.973,1.531-2.703,2.296-5.192,2.296C265.031,59.272,263.314,58.508,262.343,56.977z
		 M269.788,56.098c0.5-0.544,0.822-1.28,0.966-2.211c0.143-0.929,0.214-2.195,0.214-3.798v-7.21c0-1.602-0.071-2.867-0.214-3.798
		c-0.144-0.929-0.466-1.666-0.966-2.21c-0.501-0.543-1.266-0.815-2.296-0.815s-1.788,0.272-2.274,0.815
		c-0.487,0.544-0.802,1.281-0.944,2.21c-0.144,0.931-0.215,2.196-0.215,3.798v7.21c0,1.603,0.071,2.869,0.215,3.798
		c0.143,0.931,0.457,1.667,0.944,2.211c0.486,0.543,1.244,0.815,2.274,0.815S269.287,56.641,269.788,56.098z"/>
	<path d="M278.478,34.082h3.133v2.575c0.829-0.916,1.752-1.638,2.768-2.167c1.016-0.529,2.082-0.794,3.197-0.794
		c1.229,0,2.174,0.458,2.832,1.374c0.658,0.916,0.987,2.217,0.987,3.905v19.912h-3.133V39.661c0-1.259-0.193-2.16-0.579-2.704
		c-0.387-0.543-0.98-0.815-1.781-0.815c-0.687,0-1.401,0.208-2.146,0.622c-0.744,0.415-1.459,0.98-2.146,1.695v20.428h-3.133V34.082
		z"/>
</g>
<g>
</g>
<g>
</g>
<g>
</g>
<g>
</g>
<g>
</g>
<g>
</g>
<g>
</g>
<g>
</g>
<g>
</g>
<g>
</g>
<g>
</g>
<g>
</g>
<g>
</g>
<g>
</g>
<g>
</g>
</svg>
