<?xml version="1.0" encoding="utf-8"?>
<!-- Generator: Adobe Illustrator 22.1.0, SVG Export Plug-In . SVG Version: 6.00 Build 0)  -->
<svg version="1.1" id="Layer_1" xmlns="http://www.w3.org/2000/svg" xmlns:xlink="http://www.w3.org/1999/xlink" x="0px" y="0px"
	 viewBox="0 0 66 94" style="enable-background:new 0 0 66 94;" xml:space="preserve">
<style type="text/css">
	.st0{fill:#303030;}
</style>
<g>
	<path class="st0" d="M47.6,57.5L6.9,44.2c-5.2-1.7-8-7.3-6.4-12.6l0,0c1.7-5.2,7.3-8.1,12.5-6.4l40.8,13.3c5.2,1.7,8,7.3,6.4,12.6
		l0,0C58.4,56.3,52.8,59.2,47.6,57.5z"/>
	<path class="st0" d="M60.8,18.8L14.5,43.5c-4.8,2.6-10.8,0.7-13.4-4.1l0,0c-2.6-4.8-0.7-10.9,4.1-13.5L51.5,1.2
		c4.8-2.6,10.8-0.7,13.4,4.1l0,0C67.4,10.1,65.6,16.2,60.8,18.8z"/>
	<path class="st0" d="M55.4,56.8L29.1,70.9c-4.8,2.6-10.8,0.7-13.4-4.1l0,0c-2.6-4.8-0.7-10.9,4.1-13.5l26.3-14.1
		c4.8-2.6,10.8-0.7,13.4,4.1l0,0C62.1,48.2,60.2,54.2,55.4,56.8z"/>
	<ellipse class="st0" cx="36.5" cy="84" rx="9.9" ry="10"/>
</g>
</svg>
