<?xml version="1.0" encoding="utf-8"?>
<!-- Generator: Adobe Illustrator 16.0.0, SVG Export Plug-In . SVG Version: 6.00 Build 0)  -->
<!DOCTYPE svg PUBLIC "-//W3C//DTD SVG 1.1//EN" "http://www.w3.org/Graphics/SVG/1.1/DTD/svg11.dtd">
<svg version="1.1" id="Layer_1" xmlns="http://www.w3.org/2000/svg" xmlns:xlink="http://www.w3.org/1999/xlink" x="0px" y="0px"
	 width="450px" height="70px" viewBox="0 0 450 70" enable-background="new 0 0 450 70" xml:space="preserve">
<g>
	<path fill="#FFFFFF" d="M44.051,11.176v5.017H25.924v16.663h15.381v5.017H25.924v23.291H11.422V11.176H44.051z"/>
	<path fill="#FFFFFF" d="M64.925,23.298c12.207,0,18.311,6.445,18.311,19.336S77.132,61.97,64.925,61.97
		c-12.231,0-18.347-6.445-18.347-19.336S52.694,23.298,64.925,23.298z M64.889,26.557c-2.954,0-4.431,5.359-4.431,16.077
		c0,10.718,1.477,16.077,4.431,16.077c2.979,0,4.468-5.359,4.468-16.077C69.356,31.917,67.867,26.557,64.889,26.557z"/>
	<path fill="#FFFFFF" d="M105.501,23.298c12.207,0,18.311,6.445,18.311,19.336s-6.104,19.336-18.311,19.336
		c-12.231,0-18.347-6.445-18.347-19.336S93.27,23.298,105.501,23.298z M105.465,26.557c-2.954,0-4.431,5.359-4.431,16.077
		c0,10.718,1.477,16.077,4.431,16.077c2.979,0,4.468-5.359,4.468-16.077C109.933,31.917,108.443,26.557,105.465,26.557z"/>
	<path fill="#FFFFFF" d="M162.557,10.407v50.757H149.19v-3.186c-2.247,2.686-5.25,4.027-9.009,4.027
		c-8.301,0-12.451-6.371-12.451-19.115c0-13.111,4.395-19.666,13.184-19.666c3.466,0,6.226,1.526,8.276,4.578V11.176
		C153.219,11.176,157.674,10.92,162.557,10.407z M145.235,28.608c-2.247,0-3.369,2.063-3.369,6.189l-0.256,7.837l0.146,7.142
		c0,4.564,1.269,6.848,3.809,6.848c2.466,0,3.699-2.246,3.699-6.738l0.183-9.009l-0.293-6.152
		C148.763,30.646,147.457,28.608,145.235,28.608z"/>
	<path fill="#FFFFFF" d="M260.408,61.164V11.176h20.728c14.722,0,22.082,8.35,22.082,25.048c0,16.627-7.629,24.939-22.888,24.939
		H260.408z M274.91,57.025h3.809c3.491,0,5.908-1.507,7.251-4.522c1.343-3.015,2.014-8.465,2.014-16.351
		c0-7.886-0.665-13.331-1.995-16.333c-1.331-3.003-3.754-4.504-7.27-4.504h-3.809V57.025z"/>
	<path fill="#FFFFFF" d="M335.555,37.653h-9.155c0.317-1.44,0.598-2.502,0.842-3.186c0.342-1.001,0.514-1.904,0.514-2.71
		c0-1.562-0.563-2.344-1.686-2.344c-0.854,0-1.672,1.032-2.453,3.094c-0.781,2.063-1.172,4.242-1.172,6.537v22.119h-13.367V24.25
		l2.601,0.037c3.076,0,6.665-0.33,10.767-0.989v6.079c2.173-4.052,4.834-6.079,7.983-6.079c4.297,0,6.445,2.368,6.445,7.104
		c0,1.245-0.208,2.673-0.622,4.285C336.104,35.346,335.872,36.335,335.555,37.653z"/>
	<path fill="#FFFFFF" d="M341.231,61.164V24.287c4.174,0,8.63-0.33,13.366-0.989v37.866H341.231z M348.006,9.931
		c4.15,0,6.226,1.611,6.226,4.834s-2.075,4.834-6.226,4.834s-6.226-1.611-6.226-4.834S343.855,9.931,348.006,9.931z"/>
	<path fill="#FFFFFF" d="M397.042,61.164h-13.366v-27.1c0-2.759-0.77-4.138-2.308-4.138c-1.563,0-2.918,1.093-4.065,3.278
		s-1.721,4.767-1.721,7.745v20.215h-13.367V24.177c4.59,0,9.046-0.305,13.367-0.916v6.921c3.32-4.59,7.373-6.885,12.158-6.885
		c6.201,0,9.302,3.149,9.302,9.448V61.164z"/>
	<path fill="#FFFFFF" d="M437.398,24.25l-7.617,9.558l10.986,27.356h-14.099l-6.409-16.26l-2.454,3.003v13.257h-13.366V11.176
		c3.931,0,8.386-0.269,13.366-0.806v31.274l14.246-17.395H437.398z"/>
</g>
<g>
	<g>
		<path fill="#FFFFFF" d="M230.47,42.586l-17.1-17.1L193.391,5.507h-1.562l-0.318,0.81c-0.841,2.138-1.201,4.326-1.04,6.325
			c0.184,2.278,1.05,4.251,2.503,5.705l15.596,15.597l2.058-2.058l14.418,16.123c1.436,1.435,3.903,1.52,5.424,0
			C231.965,46.515,231.965,44.082,230.47,42.586z"/>
	</g>
</g>
<g>
	<g>
		<path fill="#FFFFFF" d="M201.343,30.331l-12.215,12.216c-1.495,1.493-1.495,3.927,0,5.421c1.42,1.422,3.877,1.547,5.423,0
			l12.215-12.215L201.343,30.331z"/>
	</g>
</g>
<g>
	<g>
		<path fill="#FFFFFF" d="M229.752,12.768l-6.929,6.929l-1.808-1.808l6.929-6.929l-1.807-1.808l-6.929,6.929l-1.808-1.808
			l6.93-6.929l-1.808-1.808l-9.038,9.038c-1.106,1.105-1.765,2.574-1.859,4.134c-0.024,0.395-0.113,0.784-0.262,1.154l5.871,5.871
			c0.371-0.148,0.758-0.238,1.154-0.262c1.561-0.093,3.029-0.753,4.134-1.858l9.038-9.039L229.752,12.768z"/>
	</g>
</g>
<line fill="#FFFFFF" stroke="#FFFFFF" stroke-width="7" stroke-miterlimit="10" x1="180" y1="57.5" x2="242" y2="57.5"/>
<g>
</g>
<g>
</g>
<g>
</g>
<g>
</g>
<g>
</g>
<g>
</g>
<g>
</g>
<g>
</g>
<g>
</g>
<g>
</g>
<g>
</g>
<g>
</g>
<g>
</g>
<g>
</g>
<g>
</g>
</svg>
